<svg width="291" height="56" viewBox="0 0 291 56" fill="none" xmlns="http://www.w3.org/2000/svg">
<path d="M27.69 55.38C42.9828 55.38 55.38 42.9828 55.38 27.69C55.38 12.3972 42.9828 0 27.69 0C12.3972 0 0 12.3972 0 27.69C0 42.9828 12.3972 55.38 27.69 55.38Z" fill="#E00E12"/>
<path d="M52.3364 20.5007C52.1668 20.439 51.9817 20.402 51.7905 20.402C48.3454 20.402 45.144 19.3441 42.4947 17.5399H45.764C46.6337 17.5399 47.34 16.8367 47.34 15.9731C47.34 15.1064 46.6337 14.4063 45.764 14.4063H40.2309C39.9009 14.2984 39.5616 14.3076 39.2532 14.4063H39.0496C37.8684 12.9783 36.9246 11.3468 36.2769 9.57645C38.146 8.67278 39.8731 7.46994 41.3875 6.00186C40.453 5.41278 39.4784 4.87921 38.4698 4.41349C37.5476 5.20613 36.5422 5.89391 35.4781 6.46141C35.3548 5.65026 35.29 4.82061 35.29 3.97862C35.29 3.65786 35.1944 3.36178 35.0278 3.11504C34.3555 2.91457 33.6708 2.74185 32.9768 2.59381C32.4803 2.85597 32.141 3.3772 32.141 3.97862C32.141 5.24006 32.2613 6.48608 32.4957 7.69817C30.9536 8.16389 29.3375 8.41062 27.6936 8.41062C26.0497 8.41062 24.4305 8.16697 22.8915 7.69817C23.1259 6.48608 23.2462 5.24006 23.2462 3.97862C23.2462 3.3772 22.9069 2.85905 22.4104 2.59381C21.7164 2.73877 21.0317 2.91457 20.3594 3.11504C20.1959 3.36178 20.0972 3.66095 20.0972 3.97862C20.0972 4.82369 20.0324 5.65334 19.9091 6.46141C18.845 5.89391 17.8396 5.20922 16.9174 4.41349C15.9088 4.88229 14.9342 5.41278 13.9997 6.00186C15.5141 7.46686 17.2412 8.6697 19.1103 9.57645C18.4626 11.3468 17.5188 12.9783 16.3376 14.4063H16.1309C15.8225 14.3076 15.4832 14.2984 15.1532 14.4063H9.62015C8.75041 14.4063 8.04412 15.1095 8.04412 15.9731C8.04412 16.8398 8.75041 17.5399 9.62015 17.5399H12.8894C10.2401 19.3441 7.03867 20.402 3.59361 20.402C3.40239 20.402 3.21734 20.439 3.04771 20.5007C2.80714 21.3304 2.60358 22.1754 2.44629 23.039C2.73312 23.3444 3.14024 23.5387 3.5967 23.5387C4.61757 23.5387 5.62611 23.4616 6.61614 23.3104L26.3736 52.8263C26.3766 52.8325 26.3797 52.8355 26.3828 52.8417C26.389 52.851 26.3951 52.8571 26.4013 52.8664C26.4137 52.8849 26.426 52.9003 26.4383 52.9188L26.4414 52.9219C26.4445 52.9281 26.4476 52.9311 26.4537 52.9342C26.4537 52.9342 26.4538 52.9373 26.4568 52.9373C26.4661 52.9496 26.4753 52.9589 26.4846 52.9712C26.4877 52.9743 26.4908 52.9774 26.4938 52.9836C26.5062 52.999 26.5185 53.0113 26.5309 53.0268C26.537 53.036 26.5463 53.0422 26.5524 53.0514C26.5586 53.0576 26.5648 53.0638 26.5709 53.0699C26.574 53.073 26.5771 53.0761 26.5802 53.0792C26.5895 53.0884 26.5987 53.0977 26.608 53.1069C26.6203 53.1193 26.6326 53.1316 26.645 53.1409C26.6481 53.144 26.6542 53.147 26.6604 53.1532C26.6635 53.1563 26.6666 53.1563 26.6666 53.1594C26.6727 53.1655 26.6789 53.1686 26.6851 53.1748C26.6881 53.1748 26.6881 53.1779 26.6912 53.1779C26.7128 53.1964 26.7344 53.2118 26.756 53.2272C26.7622 53.2303 26.7683 53.2365 26.7745 53.2427L26.7776 53.2457C26.7899 53.255 26.7992 53.2612 26.8115 53.2673C26.8115 53.2673 26.8115 53.2673 26.8146 53.2673C26.8177 53.2673 26.8177 53.2704 26.8208 53.2704C26.8454 53.2858 26.867 53.3013 26.8917 53.3136C26.8979 53.3167 26.904 53.3198 26.9102 53.3228C26.9164 53.3259 26.9225 53.329 26.9287 53.3321C26.9441 53.3413 26.9596 53.3506 26.9781 53.3568C26.9842 53.3598 26.9935 53.3629 26.9997 53.366H27.0027C27.231 53.3722 27.4592 53.3753 27.6905 53.3753C27.9218 53.3753 28.1501 53.3722 28.3783 53.366C28.3783 53.366 28.3814 53.366 28.3814 53.3629C28.3875 53.3598 28.3937 53.3568 28.3999 53.3537C28.4153 53.3444 28.4338 53.3352 28.4492 53.329C28.4554 53.3259 28.4616 53.3228 28.4677 53.3198C28.4739 53.3167 28.4801 53.3136 28.4862 53.3105C28.5109 53.2951 28.5325 53.2827 28.5572 53.2673C28.5603 53.2673 28.5603 53.2642 28.5633 53.2642C28.5633 53.2642 28.5633 53.2642 28.5664 53.2642C28.5788 53.2581 28.588 53.2488 28.6004 53.2396C28.6004 53.2396 28.6034 53.2396 28.6034 53.2365C28.6096 53.2334 28.6158 53.2272 28.6219 53.2211C28.6435 53.2056 28.6651 53.1871 28.6867 53.1717C28.6898 53.1686 28.6898 53.1686 28.6929 53.1655C28.699 53.1625 28.7052 53.1563 28.7083 53.1501C28.7114 53.147 28.7145 53.144 28.7176 53.144C28.7206 53.1409 28.7268 53.1378 28.7299 53.1316C28.7422 53.1193 28.7546 53.1069 28.7669 53.0946C28.7762 53.0854 28.7854 53.0792 28.7947 53.0699C28.7977 53.0669 28.8008 53.0638 28.807 53.0607C28.8132 53.0545 28.8193 53.0483 28.8255 53.0422C28.8348 53.0329 28.8409 53.0268 28.8502 53.0175C28.8594 53.0082 28.8687 52.999 28.8749 52.9897C28.881 52.9805 28.8872 52.9712 28.8964 52.9651C28.9057 52.9527 28.9149 52.9435 28.9242 52.9311C28.9242 52.9311 28.9242 52.9281 28.9273 52.9281C28.9304 52.925 28.9335 52.9188 28.9396 52.9157L28.9427 52.9126C28.955 52.8972 28.9674 52.8787 28.9797 52.8633C28.9859 52.854 28.9921 52.8448 28.9982 52.8355C29.0013 52.8294 29.0044 52.8263 29.0075 52.8201L48.7649 23.3043C49.7549 23.4554 50.7635 23.5325 51.7843 23.5325C52.2377 23.5325 52.6448 23.3413 52.9347 23.0329C52.7805 22.1754 52.577 21.3304 52.3364 20.5007ZM9.26238 22.3327C11.2517 21.6665 13.13 20.6919 14.8355 19.4336L22.3178 41.8342L9.26238 22.3327ZM27.6905 44.2831L17.5126 17.179H37.8653L27.6905 44.2831ZM33.0663 41.8372L40.5486 19.4367C42.2541 20.695 44.1324 21.6696 46.1217 22.3358L33.0663 41.8372Z" fill="#F2F2F2"/>
<path d="M77.7735 14.0053C79.0479 14.0053 80.1858 14.1419 81.1912 14.4108C82.1967 14.6798 83.0491 15.0853 83.7567 15.6273C84.4601 16.1694 85.0021 16.8604 85.3787 17.7004C85.7552 18.5403 85.9455 19.521 85.9455 20.6423C85.9455 22.0905 85.6476 23.2946 85.0476 24.2504C84.4477 25.2063 83.5994 25.9345 82.4988 26.4393L86.0904 33.337C86.1483 33.4528 86.1772 33.5604 86.1772 33.6556C86.1772 33.8294 86.1152 33.9783 85.9869 34.1024C85.8628 34.2266 85.7097 34.2928 85.54 34.2928H81.6009C81.2161 34.2928 80.9388 34.2059 80.7733 34.0321C80.6078 33.8583 80.4796 33.6845 80.3802 33.5107L77.1652 27.3124H74.5005V33.5107C74.5005 33.7218 74.4219 33.908 74.2688 34.0611C74.1115 34.2183 73.9295 34.2928 73.7185 34.2928H69.9241C69.7131 34.2928 69.5269 34.2142 69.3738 34.0611C69.2207 33.908 69.1421 33.7218 69.1421 33.5107V14.7874C69.1421 14.5764 69.2207 14.3902 69.3738 14.2371C69.5269 14.084 69.7131 14.0053 69.9241 14.0053H77.7735ZM74.5005 22.7857H77.7735C78.5845 22.7857 79.2548 22.6326 79.7885 22.3222C80.3182 22.0119 80.5871 21.4533 80.5871 20.6423C80.5871 19.8313 80.3223 19.2727 79.7885 18.9624C79.2589 18.6521 78.5845 18.499 77.7735 18.499H74.5005V22.7857Z" fill="#E00E12"/>
<path d="M106.775 14.0041C106.986 14.0041 107.173 14.0827 107.326 14.2358C107.479 14.3889 107.557 14.5751 107.557 14.7862V26.3471C107.557 27.6794 107.346 28.8587 106.92 29.8807C106.494 30.9027 105.89 31.7634 105.108 32.4585C104.326 33.1537 103.395 33.6792 102.311 34.0392C101.231 34.395 100.039 34.5729 98.748 34.5729C97.4364 34.5729 96.2364 34.395 95.1564 34.0392C94.0724 33.6833 93.1455 33.1537 92.3759 32.4585C91.6062 31.7634 91.0063 30.9027 90.5801 29.8807C90.1539 28.8587 89.9429 27.6794 89.9429 26.3471V14.7862C89.9429 14.5751 90.0215 14.3889 90.1746 14.2358C90.3277 14.0827 90.5139 14.0041 90.7249 14.0041H94.5192C94.7303 14.0041 94.9165 14.0827 95.0696 14.2358C95.2227 14.3889 95.3013 14.5751 95.3013 14.7862V26.2312C95.3013 27.3898 95.5868 28.3001 96.1578 28.9538C96.7288 29.6076 97.5936 29.9386 98.7522 29.9386C99.9107 29.9386 100.776 29.6118 101.347 28.9538C101.918 28.2959 102.203 27.3898 102.203 26.2312V14.7862C102.203 14.5751 102.282 14.3889 102.435 14.2358C102.588 14.0827 102.774 14.0041 102.985 14.0041H106.775Z" fill="#E00E12"/>
<path d="M113.064 34.2833C112.853 34.2833 112.667 34.2047 112.514 34.0516C112.361 33.8985 112.282 33.7123 112.282 33.5012V14.7862C112.282 14.5751 112.361 14.3889 112.514 14.2358C112.667 14.0827 112.853 14.0041 113.064 14.0041H122.395C123.69 14.0041 124.778 14.182 125.668 14.542C126.558 14.8979 127.265 15.3613 127.799 15.9323C128.328 16.5033 128.713 17.1488 128.945 17.8729C129.177 18.597 129.293 19.317 129.293 20.0328C129.293 20.5914 129.23 21.0797 129.102 21.4976C128.978 21.9114 128.825 22.2714 128.655 22.5693C128.482 22.8672 128.304 23.1113 128.122 23.2934C127.94 23.4755 127.786 23.6161 127.671 23.7154C128.424 24.2368 128.949 24.8409 129.251 25.5278C129.549 26.2147 129.698 27.0381 129.698 28.0063C129.698 28.7966 129.582 29.5704 129.35 30.3234C129.119 31.0765 128.738 31.7468 128.204 32.3385C127.671 32.9261 126.984 33.4019 126.131 33.7578C125.283 34.1136 124.236 34.2916 123.003 34.2916H113.064V34.2833ZM123.901 20.1446C123.901 19.6439 123.752 19.2425 123.45 18.9405C123.148 18.6384 122.709 18.4895 122.13 18.4895H117.641V21.7914H122.13C122.709 21.7914 123.148 21.6424 123.45 21.3445C123.752 21.0466 123.901 20.6494 123.901 20.1446ZM117.641 29.7938H122.42C122.999 29.7938 123.462 29.6242 123.81 29.2849C124.158 28.9456 124.331 28.5277 124.331 28.0229C124.331 27.5222 124.158 27.1001 123.81 26.7608C123.462 26.4215 122.999 26.2519 122.42 26.2519H117.641V29.7938Z" fill="#E00E12"/>
<path d="M143.543 33.5013C143.543 33.7123 143.464 33.8985 143.311 34.0516C143.158 34.2088 142.972 34.2833 142.761 34.2833H138.967C138.756 34.2833 138.569 34.2047 138.416 34.0516C138.263 33.8985 138.185 33.7123 138.185 33.5013V27.3319L131.494 15.0179C131.415 14.8813 131.378 14.7572 131.378 14.6413C131.378 14.4676 131.44 14.3186 131.568 14.1903C131.692 14.0662 131.846 14 132.019 14H135.987C136.372 14 136.662 14.0952 136.856 14.2896C137.051 14.4841 137.167 14.6289 137.204 14.7241L140.853 21.8535L144.532 14.7241C144.569 14.6289 144.685 14.4841 144.879 14.2896C145.074 14.0952 145.364 14 145.748 14H149.716C149.89 14 150.039 14.0621 150.163 14.1903C150.288 14.3145 150.354 14.4676 150.354 14.6413C150.354 14.7572 150.316 14.8813 150.238 15.0179L143.543 27.3319V33.5013Z" fill="#E00E12"/>
<path d="M168.902 14.2896C170.429 14.2896 171.703 14.4593 172.725 14.7986C173.747 15.1379 174.571 15.6386 175.187 16.3047C175.804 16.9709 176.251 17.7902 176.52 18.7667C176.789 19.7432 176.933 20.8563 176.954 22.1142C176.975 22.9831 176.983 23.7527 176.983 24.4189C176.983 25.0851 176.975 25.8547 176.954 26.7236C176.917 28.056 176.764 29.2146 176.507 30.1993C176.251 31.1841 175.812 31.9993 175.204 32.6489C174.596 33.2944 173.789 33.7785 172.783 34.0971C171.778 34.4157 170.532 34.5771 169.047 34.5771H162.729C162.302 34.5771 162.091 34.3661 162.091 33.9399V14.9558C162.091 14.5131 162.302 14.2896 162.729 14.2896H168.902ZM175.129 22.2548C175.109 21.1914 174.985 20.2687 174.753 19.4867C174.521 18.7046 174.153 18.0591 173.652 17.5461C173.152 17.033 172.498 16.6523 171.695 16.3999C170.892 16.1475 169.912 16.0234 168.753 16.0234H163.916V32.8268H168.898C170.057 32.8268 171.029 32.711 171.811 32.4792C172.593 32.2475 173.226 31.8875 173.71 31.3951C174.194 30.9028 174.546 30.2614 174.769 29.467C174.993 28.6766 175.113 27.7084 175.134 26.5705C175.134 26.1443 175.138 25.7595 175.15 25.4119C175.158 25.0644 175.167 24.7292 175.167 24.4106C175.167 24.092 175.162 23.7651 175.15 23.4258C175.134 23.0948 175.129 22.7017 175.129 22.2548Z" fill="#1C1E2E"/>
<path d="M189.441 14C190.563 14 191.585 14.1655 192.512 14.4924C193.438 14.8193 194.237 15.3199 194.903 15.9861C195.569 16.6523 196.091 17.484 196.467 18.4771C196.844 19.4743 197.051 20.6452 197.092 21.9983C197.129 22.8672 197.15 23.6782 197.15 24.4313C197.15 25.1844 197.129 25.9954 197.092 26.8643C197.013 29.6076 196.318 31.6269 195.007 32.9178C193.695 34.213 191.837 34.8584 189.445 34.8584C187.029 34.8584 185.171 34.213 183.868 32.9178C182.564 31.6227 181.873 29.6035 181.795 26.8643C181.757 25.9954 181.737 25.1844 181.737 24.4313C181.737 23.6782 181.757 22.8672 181.795 21.9983C181.832 20.6452 182.043 19.4743 182.42 18.4771C182.796 17.484 183.317 16.6523 183.984 15.9861C184.65 15.3199 185.44 14.8234 186.359 14.4924C187.273 14.1655 188.303 14 189.441 14ZM189.441 15.7379C188.63 15.7379 187.877 15.8579 187.182 16.102C186.487 16.3461 185.879 16.7226 185.357 17.2481C184.836 17.7695 184.426 18.4357 184.124 19.2467C183.826 20.0577 183.657 21.0259 183.615 22.1431C183.595 22.5859 183.582 22.9914 183.574 23.3596C183.566 23.7279 183.557 24.0837 183.557 24.4313C183.557 24.7789 183.562 25.143 183.574 25.5195C183.582 25.8961 183.599 26.2974 183.615 26.7236C183.653 27.8615 183.822 28.8339 184.124 29.6366C184.422 30.4393 184.828 31.1014 185.341 31.6227C185.854 32.1441 186.458 32.5248 187.153 32.7689C187.848 33.013 188.61 33.133 189.441 33.133C190.273 33.133 191.034 33.013 191.73 32.7689C192.425 32.5248 193.029 32.1441 193.542 31.6227C194.055 31.1014 194.46 30.4393 194.758 29.6366C195.056 28.8339 195.226 27.8656 195.267 26.7236C195.288 26.2974 195.296 25.8961 195.296 25.5195C195.296 25.143 195.296 24.7789 195.296 24.4313C195.296 24.0837 195.296 23.7279 195.296 23.3596C195.296 22.9914 195.288 22.5859 195.267 22.1431C195.23 21.0218 195.06 20.0577 194.758 19.2467C194.46 18.4357 194.047 17.7695 193.525 17.2481C193.004 16.7268 192.396 16.3461 191.701 16.102C191.005 15.8579 190.252 15.7379 189.441 15.7379Z" fill="#1C1E2E"/>
<path d="M214.81 30.2986C214.512 31.2338 214.061 32.0406 213.461 32.7192C212.861 33.3937 212.129 33.9233 211.26 34.2999C210.391 34.6764 209.386 34.8667 208.248 34.8667C207.3 34.8667 206.411 34.7509 205.583 34.5192C204.751 34.2874 204.019 33.9316 203.382 33.4475C202.745 32.9634 202.231 32.351 201.847 31.6062C201.462 30.8614 201.247 29.98 201.209 28.9539C201.209 28.7801 201.259 28.6311 201.354 28.5029C201.449 28.3787 201.607 28.3125 201.818 28.3125H202.397C202.591 28.3125 202.74 28.3704 202.848 28.4863C202.956 28.6022 203.018 28.747 203.038 28.9208C203.096 29.6738 203.274 30.3152 203.572 30.849C203.87 31.3827 204.259 31.8131 204.731 32.1524C205.202 32.4917 205.74 32.7358 206.34 32.893C206.94 33.0461 207.577 33.1247 208.252 33.1247C209.1 33.1247 209.849 32.9799 210.499 32.6903C211.144 32.4006 211.686 31.991 212.121 31.4572C212.555 30.9276 212.882 30.2945 213.106 29.558C213.329 28.8256 213.441 28.0229 213.441 27.1539V16.0275H202.749C202.323 16.0275 202.112 15.8165 202.112 15.3903V14.9269C202.112 14.5007 202.323 14.2896 202.749 14.2896H214.599C215.042 14.2896 215.265 14.5131 215.265 14.9558V27.1829C215.257 28.3208 215.108 29.3594 214.81 30.2986Z" fill="#1C1E2E"/>
<path d="M228.267 14C229.388 14 230.41 14.1655 231.337 14.4924C232.264 14.8193 233.062 15.3199 233.728 15.9861C234.395 16.6523 234.916 17.484 235.292 18.4771C235.669 19.4743 235.876 20.6452 235.917 21.9983C235.954 22.8672 235.975 23.6782 235.975 24.4313C235.975 25.1844 235.954 25.9954 235.917 26.8643C235.839 29.6076 235.143 31.6269 233.832 32.9178C232.52 34.213 230.662 34.8584 228.271 34.8584C225.854 34.8584 223.996 34.213 222.693 32.9178C221.39 31.6227 220.699 29.6035 220.62 26.8643C220.583 25.9954 220.562 25.1844 220.562 24.4313C220.562 23.6782 220.583 22.8672 220.62 21.9983C220.657 20.6452 220.868 19.4743 221.245 18.4771C221.621 17.484 222.143 16.6523 222.809 15.9861C223.475 15.3199 224.265 14.8234 225.184 14.4924C226.098 14.1655 227.129 14 228.267 14ZM228.267 15.7379C227.456 15.7379 226.702 15.8579 226.007 16.102C225.312 16.3461 224.704 16.7226 224.183 17.2481C223.661 17.7695 223.252 18.4357 222.95 19.2467C222.652 20.0577 222.482 21.0259 222.441 22.1431C222.42 22.5859 222.407 22.9914 222.399 23.3596C222.391 23.7279 222.383 24.0837 222.383 24.4313C222.383 24.7789 222.387 25.143 222.399 25.5195C222.407 25.8961 222.424 26.2974 222.441 26.7236C222.478 27.8615 222.647 28.8339 222.95 29.6366C223.247 30.4393 223.653 31.1014 224.166 31.6227C224.679 32.1441 225.283 32.5248 225.978 32.7689C226.673 33.013 227.435 33.133 228.267 33.133C229.098 33.133 229.86 33.013 230.555 32.7689C231.25 32.5248 231.854 32.1441 232.367 31.6227C232.88 31.1014 233.286 30.4393 233.584 29.6366C233.881 28.8339 234.051 27.8656 234.092 26.7236C234.113 26.2974 234.121 25.8961 234.121 25.5195C234.121 25.143 234.121 24.7789 234.121 24.4313C234.121 24.0837 234.121 23.7279 234.121 23.3596C234.121 22.9914 234.113 22.5859 234.092 22.1431C234.055 21.0218 233.886 20.0577 233.584 19.2467C233.286 18.4357 232.872 17.7695 232.35 17.2481C231.829 16.7268 231.221 16.3461 230.526 16.102C229.831 15.8579 229.078 15.7379 228.267 15.7379Z" fill="#1C1E2E"/>
</svg>
