<svg width="291" height="56" viewBox="0 0 291 56" fill="none" xmlns="http://www.w3.org/2000/svg">
<path d="M28.3302 55.3792C43.6228 55.3792 56.0198 42.9821 56.0198 27.6896C56.0198 12.3971 43.6228 0 28.3302 0C13.0377 0 0.640625 12.3971 0.640625 27.6896C0.640625 42.9821 13.0377 55.3792 28.3302 55.3792Z" fill="#E00E12"/>
<path d="M52.9758 20.5004C52.8062 20.4387 52.6211 20.4017 52.4299 20.4017C48.9849 20.4017 45.7835 19.3439 43.1342 17.5396H46.4035C47.2732 17.5396 47.9795 16.8364 47.9795 15.9729C47.9795 15.1062 47.2732 14.4061 46.4035 14.4061H40.8705C40.5405 14.2982 40.2012 14.3074 39.8928 14.4061H39.6892C38.508 12.9782 37.5643 11.3466 36.9166 9.57633C38.7856 8.67267 40.5127 7.46985 42.027 6.00179C41.0925 5.41271 40.1179 4.87915 39.1094 4.41344C38.1873 5.20607 37.1818 5.89384 36.1178 6.46133C35.9944 5.65019 35.9296 4.82055 35.9296 3.97858C35.9296 3.65782 35.834 3.36174 35.6675 3.11501C34.9951 2.91454 34.3105 2.74183 33.6165 2.59379C33.12 2.85594 32.7807 3.37716 32.7807 3.97858C32.7807 5.24 32.901 6.486 33.1354 7.69807C31.5933 8.16378 29.9772 8.41052 28.3334 8.41052C26.6895 8.41052 25.0703 8.16687 23.5313 7.69807C23.7657 6.486 23.886 5.24 23.886 3.97858C23.886 3.37716 23.5467 2.85903 23.0502 2.59379C22.3563 2.73874 21.6716 2.91454 20.9992 3.11501C20.8358 3.36174 20.7371 3.66091 20.7371 3.97858C20.7371 4.82364 20.6723 5.65328 20.5489 6.46133C19.4849 5.89384 18.4795 5.20916 17.5573 4.41344C16.5488 4.88224 15.5742 5.41271 14.6397 6.00179C16.154 7.46676 17.8811 8.66958 19.7501 9.57633C19.1025 11.3466 18.1587 12.9782 16.9775 14.4061H16.7708C16.4624 14.3074 16.1232 14.2982 15.7932 14.4061H10.2602C9.39045 14.4061 8.68418 15.1093 8.68418 15.9729C8.68418 16.8395 9.39045 17.5396 10.2602 17.5396H13.5294C10.8801 19.3439 7.67874 20.4017 4.23373 20.4017C4.04252 20.4017 3.85747 20.4387 3.68784 20.5004C3.44727 21.3301 3.24372 22.1751 3.08643 23.0387C3.37325 23.344 3.78036 23.5383 4.23682 23.5383C5.25767 23.5383 6.26619 23.4612 7.25621 23.3101L27.0133 52.8255C27.0164 52.8317 27.0195 52.8348 27.0226 52.8409C27.0288 52.8502 27.0349 52.8564 27.0411 52.8656C27.0534 52.8841 27.0658 52.8995 27.0781 52.918L27.0812 52.9211C27.0843 52.9273 27.0874 52.9304 27.0935 52.9335C27.0935 52.9335 27.0935 52.9365 27.0966 52.9365C27.1059 52.9489 27.1151 52.9581 27.1244 52.9705C27.1275 52.9736 27.1305 52.9766 27.1336 52.9828C27.146 52.9982 27.1583 53.0106 27.1706 53.026C27.1768 53.0352 27.1861 53.0414 27.1922 53.0507C27.1984 53.0568 27.2046 53.063 27.2107 53.0692C27.2138 53.0723 27.2169 53.0753 27.22 53.0784C27.2292 53.0877 27.2385 53.0969 27.2477 53.1062C27.2601 53.1185 27.2724 53.1308 27.2847 53.1401C27.2878 53.1432 27.294 53.1463 27.3002 53.1524C27.3033 53.1555 27.3063 53.1555 27.3063 53.1586C27.3125 53.1648 27.3187 53.1679 27.3248 53.174C27.3279 53.174 27.3279 53.1771 27.331 53.1771C27.3526 53.1956 27.3742 53.211 27.3958 53.2265C27.4019 53.2295 27.4081 53.2357 27.4143 53.2419L27.4174 53.245C27.4297 53.2542 27.439 53.2604 27.4513 53.2665C27.4513 53.2665 27.4513 53.2665 27.4544 53.2665C27.4575 53.2665 27.4575 53.2696 27.4605 53.2696C27.4852 53.2851 27.5068 53.3005 27.5315 53.3128C27.5376 53.3159 27.5438 53.319 27.55 53.3221C27.5562 53.3251 27.5623 53.3282 27.5685 53.3313C27.5839 53.3406 27.5993 53.3498 27.6178 53.356C27.624 53.3591 27.6333 53.3622 27.6394 53.3652H27.6425C27.8707 53.3714 28.099 53.3745 28.3303 53.3745C28.5616 53.3745 28.7898 53.3714 29.018 53.3652C29.018 53.3652 29.0211 53.3652 29.0211 53.3622C29.0273 53.3591 29.0335 53.356 29.0396 53.3529C29.0551 53.3437 29.0736 53.3344 29.089 53.3282C29.0951 53.3251 29.1013 53.3221 29.1075 53.319C29.1137 53.3159 29.1198 53.3128 29.126 53.3097C29.1507 53.2943 29.1722 53.282 29.1969 53.2665C29.2 53.2665 29.2 53.2635 29.2031 53.2635C29.2031 53.2635 29.2031 53.2635 29.2062 53.2635C29.2185 53.2573 29.2278 53.248 29.2401 53.2388C29.2401 53.2388 29.2432 53.2388 29.2432 53.2357C29.2494 53.2326 29.2555 53.2265 29.2617 53.2203C29.2833 53.2049 29.3049 53.1864 29.3265 53.1709C29.3295 53.1679 29.3295 53.1679 29.3326 53.1648C29.3388 53.1617 29.345 53.1555 29.348 53.1493C29.3511 53.1463 29.3542 53.1432 29.3573 53.1432C29.3604 53.1401 29.3666 53.137 29.3696 53.1308C29.382 53.1185 29.3943 53.1062 29.4066 53.0938C29.4159 53.0846 29.4252 53.0784 29.4344 53.0692C29.4375 53.0661 29.4406 53.063 29.4467 53.0599C29.4529 53.0537 29.4591 53.0476 29.4652 53.0414C29.4745 53.0322 29.4807 53.026 29.4899 53.0167C29.4992 53.0075 29.5084 52.9982 29.5146 52.989C29.5208 52.9797 29.5269 52.9705 29.5362 52.9643C29.5454 52.952 29.5547 52.9427 29.5639 52.9304C29.5639 52.9304 29.5639 52.9273 29.567 52.9273C29.5701 52.9242 29.5732 52.918 29.5794 52.915L29.5824 52.9119C29.5948 52.8964 29.6071 52.8779 29.6195 52.8625C29.6256 52.8533 29.6318 52.844 29.638 52.8348C29.641 52.8286 29.6441 52.8255 29.6472 52.8193L49.4043 23.3039C50.3944 23.455 51.4029 23.5322 52.4237 23.5322C52.8771 23.5322 53.2842 23.3409 53.5741 23.0325C53.4199 22.1751 53.2164 21.3301 52.9758 20.5004ZM9.90242 22.3324C11.8917 21.6662 13.77 20.6916 15.4755 19.4333L22.9577 41.8336L9.90242 22.3324ZM28.3303 44.2825L18.1525 17.1788H38.5049L28.3303 44.2825ZM33.706 41.8366L41.1881 19.4364C42.8937 20.6947 44.7719 21.6693 46.7612 22.3355L33.706 41.8366Z" fill="#F2F2F2"/>
<path d="M81.2211 14.0059C82.9102 14.0059 84.4183 14.1868 85.7509 14.5433C87.0835 14.8998 88.2133 15.4372 89.151 16.1556C90.0833 16.874 90.8018 17.7899 91.3008 18.9031C91.7999 20.0164 92.0521 21.3161 92.0521 22.8023C92.0521 24.7218 91.6573 26.3176 90.8621 27.5845C90.0669 28.8513 88.9426 29.8165 87.4839 30.4855L92.2441 39.6275C92.3209 39.7811 92.3592 39.9237 92.3592 40.0498C92.3592 40.2801 92.277 40.4775 92.107 40.6421C91.9424 40.8066 91.7395 40.8943 91.5147 40.8943H86.2938C85.7838 40.8943 85.4164 40.7792 85.197 40.5488C84.9777 40.3185 84.8076 40.0882 84.676 39.8578L80.4149 31.6427H76.8831V39.8578C76.8831 40.1375 76.7789 40.3843 76.576 40.5872C76.3676 40.7956 76.1263 40.8943 75.8466 40.8943H70.8177C70.5381 40.8943 70.2913 40.7901 70.0884 40.5872C69.8854 40.3843 69.7812 40.1375 69.7812 39.8578V15.0424C69.7812 14.7627 69.8854 14.5159 70.0884 14.313C70.2913 14.1101 70.5381 14.0059 70.8177 14.0059H81.2211ZM76.8831 25.6431H81.2211C82.2959 25.6431 83.1844 25.4402 83.8918 25.0289C84.5938 24.6176 84.9502 23.8772 84.9502 22.8023C84.9502 21.7275 84.5993 20.9871 83.8918 20.5758C83.1898 20.1645 82.2959 19.9616 81.2211 19.9616H76.8831V25.6431Z" fill="#E00E12"/>
<path d="M119.659 14.0055C119.939 14.0055 120.185 14.1097 120.388 14.3126C120.591 14.5155 120.695 14.7623 120.695 15.042V30.3645C120.695 32.1304 120.416 33.6934 119.851 35.0479C119.286 36.4025 118.485 37.5432 117.449 38.4645C116.412 39.3858 115.178 40.0823 113.742 40.5594C112.31 41.0311 110.731 41.2669 109.02 41.2669C107.281 41.2669 105.691 41.0311 104.26 40.5594C102.823 40.0878 101.594 39.3858 100.574 38.4645C99.5542 37.5432 98.759 36.4025 98.1942 35.0479C97.6293 33.6934 97.3496 32.1304 97.3496 30.3645V15.042C97.3496 14.7623 97.4538 14.5155 97.6567 14.3126C97.8596 14.1097 98.1064 14.0055 98.3861 14.0055H103.415C103.695 14.0055 103.941 14.1097 104.144 14.3126C104.347 14.5155 104.452 14.7623 104.452 15.042V30.211C104.452 31.7465 104.83 32.953 105.587 33.8195C106.344 34.686 107.49 35.1247 109.025 35.1247C110.561 35.1247 111.707 34.6915 112.464 33.8195C113.221 32.9475 113.599 31.7465 113.599 30.211V15.042C113.599 14.7623 113.703 14.5155 113.906 14.3126C114.109 14.1097 114.356 14.0055 114.635 14.0055H119.659Z" fill="#E00E12"/>
<path d="M127.995 40.883C127.715 40.883 127.468 40.7788 127.265 40.5759C127.062 40.373 126.958 40.1262 126.958 39.8465V15.042C126.958 14.7623 127.062 14.5155 127.265 14.3126C127.468 14.1097 127.715 14.0055 127.995 14.0055H140.361C142.078 14.0055 143.52 14.2413 144.699 14.7184C145.878 15.19 146.816 15.8043 147.523 16.5611C148.225 17.3179 148.735 18.1734 149.042 19.1331C149.35 20.0928 149.503 21.0471 149.503 21.9958C149.503 22.7362 149.421 23.3833 149.251 23.9372C149.086 24.4856 148.883 24.9627 148.659 25.3575C148.428 25.7524 148.192 26.076 147.951 26.3173C147.71 26.5586 147.507 26.745 147.353 26.8766C148.351 27.5676 149.048 28.3683 149.448 29.2787C149.843 30.189 150.041 31.2804 150.041 32.5636C150.041 33.6111 149.887 34.6366 149.58 35.6347C149.273 36.6328 148.768 37.5212 148.061 38.3055C147.353 39.0842 146.443 39.7149 145.313 40.1865C144.189 40.6581 142.802 40.894 141.167 40.894H127.995V40.883ZM142.357 22.1439C142.357 21.4803 142.16 20.9483 141.76 20.548C141.359 20.1477 140.778 19.9502 140.01 19.9502H134.06V24.3265H140.01C140.778 24.3265 141.359 24.1291 141.76 23.7343C142.16 23.3394 142.357 22.8129 142.357 22.1439ZM134.06 34.9328H140.394C141.162 34.9328 141.776 34.7079 142.237 34.2582C142.697 33.8085 142.928 33.2546 142.928 32.5856C142.928 31.922 142.697 31.3626 142.237 30.9129C141.776 30.4632 141.162 30.2384 140.394 30.2384H134.06V34.9328Z" fill="#E00E12"/>
<path d="M168.391 39.8465C168.391 40.1262 168.287 40.373 168.084 40.5759C167.881 40.7843 167.634 40.883 167.354 40.883H162.325C162.046 40.883 161.799 40.7788 161.596 40.5759C161.393 40.373 161.289 40.1262 161.289 39.8465V31.6697L152.421 15.3491C152.317 15.1681 152.268 15.0036 152.268 14.85C152.268 14.6197 152.35 14.4223 152.52 14.2523C152.684 14.0877 152.887 14 153.118 14H158.377C158.887 14 159.271 14.1261 159.529 14.3839C159.786 14.6416 159.94 14.8336 159.989 14.9597L164.826 24.4088L169.701 14.9597C169.751 14.8336 169.904 14.6416 170.162 14.3839C170.42 14.1261 170.804 14 171.314 14H176.573C176.803 14 177.001 14.0823 177.165 14.2523C177.33 14.4168 177.418 14.6197 177.418 14.85C177.418 15.0036 177.368 15.1681 177.264 15.3491L168.391 31.6697V39.8465Z" fill="#E00E12"/>
<path d="M202.001 14.3839C204.025 14.3839 205.714 14.6087 207.069 15.0584C208.423 15.5081 209.515 16.1717 210.332 17.0546C211.149 17.9376 211.741 19.0234 212.098 20.3177C212.454 21.6119 212.646 23.0871 212.673 24.7543C212.701 25.906 212.712 26.926 212.712 27.8089C212.712 28.6919 212.701 29.7119 212.673 30.8636C212.624 32.6294 212.421 34.165 212.081 35.4702C211.741 36.7754 211.16 37.8558 210.354 38.7168C209.548 39.5723 208.478 40.2139 207.145 40.6362C205.813 41.0585 204.162 41.2724 202.193 41.2724H193.819C193.254 41.2724 192.975 40.9927 192.975 40.4278V15.2668C192.975 14.68 193.254 14.3839 193.819 14.3839H202.001ZM210.255 24.9408C210.228 23.5314 210.063 22.3084 209.756 21.2719C209.449 20.2354 208.961 19.3799 208.297 18.6999C207.634 18.0198 206.767 17.5153 205.703 17.1808C204.639 16.8463 203.34 16.6817 201.804 16.6817H195.393V38.9526H201.996C203.531 38.9526 204.82 38.799 205.857 38.4919C206.893 38.1848 207.732 37.7077 208.374 37.0551C209.016 36.4025 209.482 35.5525 209.778 34.4995C210.074 33.4521 210.233 32.1688 210.26 30.6607C210.26 30.0958 210.266 29.5858 210.282 29.1251C210.293 28.6645 210.304 28.2202 210.304 27.798C210.304 27.3757 210.299 26.9425 210.282 26.4928C210.26 26.054 210.255 25.533 210.255 24.9408Z" fill="#E8EAF2"/>
<path d="M229.224 14C230.71 14 232.065 14.2194 233.293 14.6526C234.522 15.0858 235.58 15.7494 236.463 16.6324C237.346 17.5153 238.037 18.6176 238.536 19.9338C239.035 21.2554 239.309 22.8074 239.364 24.6007C239.413 25.7524 239.441 26.8273 239.441 27.8254C239.441 28.8235 239.413 29.8984 239.364 31.05C239.26 34.686 238.339 37.3622 236.6 39.0732C234.862 40.7898 232.399 41.6453 229.23 41.6453C226.027 41.6453 223.564 40.7898 221.837 39.0732C220.11 37.3567 219.194 34.6805 219.089 31.05C219.04 29.8984 219.013 28.8235 219.013 27.8254C219.013 26.8273 219.04 25.7524 219.089 24.6007C219.139 22.8074 219.419 21.2554 219.918 19.9338C220.417 18.6176 221.108 17.5153 221.991 16.6324C222.873 15.7494 223.921 15.0913 225.138 14.6526C226.35 14.2194 227.716 14 229.224 14ZM229.224 16.3033C228.149 16.3033 227.151 16.4624 226.23 16.7859C225.308 17.1095 224.502 17.6085 223.811 18.305C223.12 18.996 222.577 19.8789 222.177 20.9538C221.782 22.0287 221.557 23.312 221.502 24.7927C221.475 25.3795 221.459 25.9169 221.448 26.405C221.437 26.8931 221.426 27.3647 221.426 27.8254C221.426 28.286 221.431 28.7686 221.448 29.2677C221.459 29.7667 221.481 30.2987 221.502 30.8636C221.552 32.3717 221.777 33.6604 222.177 34.7244C222.572 35.7883 223.109 36.6657 223.789 37.3567C224.469 38.0477 225.27 38.5523 226.191 38.8758C227.113 39.1994 228.122 39.3584 229.224 39.3584C230.326 39.3584 231.335 39.1994 232.257 38.8758C233.178 38.5523 233.979 38.0477 234.659 37.3567C235.339 36.6657 235.876 35.7883 236.271 34.7244C236.666 33.6604 236.891 32.3772 236.946 30.8636C236.973 30.2987 236.984 29.7667 236.984 29.2677C236.984 28.7686 236.984 28.286 236.984 27.8254C236.984 27.3647 236.984 26.8931 236.984 26.405C236.984 25.9169 236.973 25.3795 236.946 24.7927C236.896 23.3065 236.671 22.0287 236.271 20.9538C235.876 19.8789 235.328 18.996 234.637 18.305C233.946 17.614 233.14 17.1095 232.218 16.7859C231.297 16.4624 230.299 16.3033 229.224 16.3033Z" fill="#E8EAF2"/>
<path d="M262.847 35.6018C262.453 36.8412 261.855 37.9106 261.06 38.81C260.264 39.7039 259.294 40.4059 258.142 40.9049C256.99 41.404 255.658 41.6563 254.15 41.6563C252.894 41.6563 251.715 41.5027 250.618 41.1956C249.516 40.8885 248.545 40.4169 247.7 39.7752C246.856 39.1336 246.176 38.3219 245.666 37.3348C245.156 36.3477 244.871 35.1796 244.821 33.8195C244.821 33.5892 244.887 33.3917 245.013 33.2217C245.139 33.0572 245.348 32.9695 245.627 32.9695H246.395C246.653 32.9695 246.85 33.0462 246.993 33.1998C247.136 33.3534 247.218 33.5453 247.245 33.7756C247.322 34.7737 247.558 35.6238 247.953 36.3312C248.348 37.0387 248.863 37.609 249.488 38.0587C250.113 38.5084 250.826 38.832 251.622 39.0403C252.417 39.2433 253.261 39.3475 254.155 39.3475C255.279 39.3475 256.272 39.1555 257.133 38.7716C257.989 38.3877 258.707 37.8448 259.283 37.1374C259.859 36.4354 260.292 35.5963 260.588 34.6202C260.884 33.6495 261.032 32.5856 261.032 31.4339V16.6872H246.861C246.297 16.6872 246.017 16.4075 246.017 15.8427V15.2284C246.017 14.6636 246.297 14.3839 246.861 14.3839H262.568C263.155 14.3839 263.451 14.68 263.451 15.2668V31.4723C263.44 32.9804 263.242 34.3569 262.847 35.6018Z" fill="#E8EAF2"/>
<path d="M280.681 14C282.167 14 283.522 14.2194 284.75 14.6526C285.979 15.0858 287.037 15.7494 287.92 16.6324C288.803 17.5153 289.494 18.6176 289.993 19.9338C290.492 21.2554 290.766 22.8074 290.821 24.6007C290.871 25.7524 290.898 26.8273 290.898 27.8254C290.898 28.8235 290.871 29.8984 290.821 31.05C290.717 34.686 289.796 37.3622 288.057 39.0732C286.319 40.7898 283.856 41.6453 280.687 41.6453C277.484 41.6453 275.022 40.7898 273.294 39.0732C271.567 37.3567 270.651 34.6805 270.547 31.05C270.497 29.8984 270.47 28.8235 270.47 27.8254C270.47 26.8273 270.497 25.7524 270.547 24.6007C270.596 22.8074 270.876 21.2554 271.375 19.9338C271.874 18.6176 272.565 17.5153 273.448 16.6324C274.331 15.7494 275.378 15.0913 276.595 14.6526C277.807 14.2194 279.173 14 280.681 14ZM280.681 16.3033C279.606 16.3033 278.608 16.4624 277.687 16.7859C276.765 17.1095 275.959 17.6085 275.268 18.305C274.577 18.996 274.034 19.8789 273.634 20.9538C273.239 22.0287 273.014 23.312 272.959 24.7927C272.932 25.3795 272.916 25.9169 272.905 26.405C272.894 26.8931 272.883 27.3647 272.883 27.8254C272.883 28.286 272.888 28.7686 272.905 29.2677C272.916 29.7667 272.938 30.2987 272.959 30.8636C273.009 32.3717 273.234 33.6604 273.634 34.7244C274.029 35.7883 274.566 36.6657 275.246 37.3567C275.926 38.0477 276.727 38.5523 277.648 38.8758C278.57 39.1994 279.579 39.3584 280.681 39.3584C281.783 39.3584 282.792 39.1994 283.714 38.8758C284.635 38.5523 285.436 38.0477 286.116 37.3567C286.796 36.6657 287.333 35.7883 287.728 34.7244C288.123 33.6604 288.348 32.3772 288.403 30.8636C288.43 30.2987 288.441 29.7667 288.441 29.2677C288.441 28.7686 288.441 28.286 288.441 27.8254C288.441 27.3647 288.441 26.8931 288.441 26.405C288.441 25.9169 288.43 25.3795 288.403 24.7927C288.353 23.3065 288.128 22.0287 287.728 20.9538C287.333 19.8789 286.785 18.996 286.094 18.305C285.403 17.614 284.597 17.1095 283.675 16.7859C282.754 16.4624 281.756 16.3033 280.681 16.3033Z" fill="#E8EAF2"/>
</svg>
