<svg width="291" height="56" viewBox="0 0 291 56" fill="none" xmlns="http://www.w3.org/2000/svg">
<path d="M27.6896 55.3792C42.9821 55.3792 55.3792 42.9821 55.3792 27.6896C55.3792 12.3971 42.9821 0 27.6896 0C12.3971 0 0 12.3971 0 27.6896C0 42.9821 12.3971 55.3792 27.6896 55.3792Z" fill="#E00E12"/>
<path d="M52.3352 20.5004C52.1655 20.4387 51.9805 20.4017 51.7893 20.4017C48.3443 20.4017 45.1429 19.3439 42.4936 17.5396H45.7628C46.6326 17.5396 47.3388 16.8364 47.3388 15.9729C47.3388 15.1062 46.6326 14.4061 45.7628 14.4061H40.2298C39.8998 14.2982 39.5606 14.3074 39.2522 14.4061H39.0486C37.8674 12.9782 36.9236 11.3466 36.276 9.57633C38.145 8.67267 39.8721 7.46985 41.3864 6.00179C40.4519 5.41271 39.4773 4.87915 38.4688 4.41344C37.5466 5.20607 36.5412 5.89384 35.4772 6.46133C35.3538 5.65019 35.289 4.82055 35.289 3.97858C35.289 3.65782 35.1934 3.36174 35.0269 3.11501C34.3545 2.91454 33.6698 2.74183 32.9759 2.59379C32.4793 2.85594 32.1401 3.37716 32.1401 3.97858C32.1401 5.24 32.2604 6.486 32.4948 7.69807C30.9527 8.16378 29.3366 8.41052 27.6927 8.41052C26.0489 8.41052 24.4297 8.16687 22.8907 7.69807C23.1251 6.486 23.2454 5.24 23.2454 3.97858C23.2454 3.37716 22.9061 2.85903 22.4096 2.59379C21.7156 2.73874 21.0309 2.91454 20.3586 3.11501C20.1951 3.36174 20.0964 3.66091 20.0964 3.97858C20.0964 4.82364 20.0317 5.65328 19.9083 6.46133C18.8443 5.89384 17.8388 5.20916 16.9167 4.41344C15.9082 4.88224 14.9336 5.41271 13.9991 6.00179C15.5134 7.46676 17.2405 8.66958 19.1095 9.57633C18.4618 11.3466 17.5181 12.9782 16.3369 14.4061H16.1302C15.8218 14.3074 15.4825 14.2982 15.1525 14.4061H9.61956C8.74982 14.4061 8.04355 15.1093 8.04355 15.9729C8.04355 16.8395 8.74982 17.5396 9.61956 17.5396H12.8888C10.2395 19.3439 7.03811 20.4017 3.59311 20.4017C3.40189 20.4017 3.21684 20.4387 3.04721 20.5004C2.80665 21.3301 2.60309 22.1751 2.4458 23.0387C2.73263 23.344 3.13974 23.5383 3.59619 23.5383C4.61705 23.5383 5.62557 23.4612 6.61559 23.3101L26.3727 52.8255C26.3758 52.8317 26.3789 52.8348 26.382 52.8409C26.3881 52.8502 26.3943 52.8564 26.4005 52.8656C26.4128 52.8841 26.4251 52.8995 26.4375 52.918L26.4406 52.9211C26.4437 52.9273 26.4467 52.9304 26.4529 52.9335C26.4529 52.9335 26.4529 52.9365 26.456 52.9365C26.4652 52.9489 26.4745 52.9581 26.4837 52.9705C26.4868 52.9736 26.4899 52.9766 26.493 52.9828C26.5053 52.9982 26.5177 53.0106 26.53 53.026C26.5362 53.0352 26.5454 53.0414 26.5516 53.0507C26.5578 53.0568 26.5639 53.063 26.5701 53.0692C26.5732 53.0722 26.5763 53.0753 26.5794 53.0784C26.5886 53.0877 26.5979 53.0969 26.6071 53.1062C26.6194 53.1185 26.6318 53.1308 26.6441 53.1401C26.6472 53.1432 26.6534 53.1463 26.6595 53.1524C26.6626 53.1555 26.6657 53.1555 26.6657 53.1586C26.6719 53.1648 26.678 53.1679 26.6842 53.174C26.6873 53.174 26.6873 53.1771 26.6904 53.1771C26.712 53.1956 26.7336 53.211 26.7551 53.2265C26.7613 53.2295 26.7675 53.2357 26.7737 53.2419L26.7767 53.245C26.7891 53.2542 26.7983 53.2604 26.8107 53.2665C26.8107 53.2665 26.8107 53.2665 26.8137 53.2665C26.8168 53.2665 26.8168 53.2696 26.8199 53.2696C26.8446 53.2851 26.8662 53.3005 26.8909 53.3128C26.897 53.3159 26.9032 53.319 26.9094 53.3221C26.9155 53.3251 26.9217 53.3282 26.9279 53.3313C26.9433 53.3406 26.9587 53.3498 26.9772 53.356C26.9834 53.3591 26.9926 53.3622 26.9988 53.3652H27.0019C27.2301 53.3714 27.4583 53.3745 27.6896 53.3745C27.921 53.3745 28.1492 53.3714 28.3774 53.3652C28.3774 53.3652 28.3805 53.3652 28.3805 53.3622C28.3867 53.3591 28.3928 53.356 28.399 53.3529C28.4144 53.3437 28.4329 53.3344 28.4484 53.3282C28.4545 53.3251 28.4607 53.3221 28.4669 53.319C28.473 53.3159 28.4792 53.3128 28.4854 53.3097C28.51 53.2943 28.5316 53.282 28.5563 53.2665C28.5594 53.2665 28.5594 53.2635 28.5625 53.2635C28.5625 53.2635 28.5625 53.2635 28.5656 53.2635C28.5779 53.2573 28.5871 53.248 28.5995 53.2388C28.5995 53.2388 28.6026 53.2388 28.6026 53.2357C28.6087 53.2326 28.6149 53.2265 28.6211 53.2203C28.6427 53.2049 28.6642 53.1864 28.6858 53.1709C28.6889 53.1679 28.6889 53.1679 28.692 53.1648C28.6982 53.1617 28.7043 53.1555 28.7074 53.1493C28.7105 53.1463 28.7136 53.1432 28.7167 53.1432C28.7198 53.1401 28.7259 53.137 28.729 53.1308C28.7413 53.1185 28.7537 53.1062 28.766 53.0938C28.7753 53.0846 28.7845 53.0784 28.7938 53.0692C28.7969 53.0661 28.7999 53.063 28.8061 53.0599C28.8123 53.0537 28.8185 53.0476 28.8246 53.0414C28.8339 53.0322 28.84 53.026 28.8493 53.0167C28.8585 53.0075 28.8678 52.9982 28.874 52.989C28.8801 52.9797 28.8863 52.9705 28.8956 52.9643C28.9048 52.952 28.9141 52.9427 28.9233 52.9304C28.9233 52.9304 28.9233 52.9273 28.9264 52.9273C28.9295 52.9242 28.9326 52.918 28.9387 52.915L28.9418 52.9119C28.9542 52.8964 28.9665 52.8779 28.9788 52.8625C28.985 52.8533 28.9912 52.844 28.9973 52.8348C29.0004 52.8286 29.0035 52.8255 29.0066 52.8193L48.7637 23.3039C49.7537 23.455 50.7622 23.5322 51.7831 23.5322C52.2365 23.5322 52.6436 23.3409 52.9335 23.0325C52.7793 22.1751 52.5757 21.3301 52.3352 20.5004ZM9.26179 22.3324C11.2511 21.6662 13.1293 20.6916 14.8349 19.4333L22.317 41.8336L9.26179 22.3324ZM27.6896 44.2825L17.5119 17.1788H37.8643L27.6896 44.2825ZM33.0653 41.8366L40.5475 19.4364C42.2531 20.6947 44.1313 21.6693 46.1206 22.3355L33.0653 41.8366Z" fill="#F2F2F2"/>
<path d="M80.5804 14.0059C82.2695 14.0059 83.7777 14.1868 85.1103 14.5433C86.4429 14.8998 87.5726 15.4372 88.5104 16.1556C89.4427 16.874 90.1611 17.7899 90.6602 18.9031C91.1592 20.0164 91.4115 21.3161 91.4115 22.8023C91.4115 24.7218 91.0166 26.3176 90.2215 27.5845C89.4263 28.8513 88.302 29.8165 86.8433 30.4855L91.6034 39.6275C91.6802 39.7811 91.7186 39.9237 91.7186 40.0498C91.7186 40.2801 91.6364 40.4775 91.4663 40.6421C91.3018 40.8066 91.0989 40.8943 90.8741 40.8943H85.6532C85.1432 40.8943 84.7758 40.7792 84.5564 40.5488C84.337 40.3185 84.167 40.0882 84.0354 39.8578L79.7743 31.6427H76.2425V39.8578C76.2425 40.1375 76.1383 40.3843 75.9354 40.5872C75.727 40.7956 75.4857 40.8943 75.206 40.8943H70.1771C69.8974 40.8943 69.6506 40.7901 69.4477 40.5872C69.2448 40.3843 69.1406 40.1375 69.1406 39.8578V15.0424C69.1406 14.7627 69.2448 14.5159 69.4477 14.313C69.6506 14.1101 69.8974 14.0059 70.1771 14.0059H80.5804ZM76.2425 25.6431H80.5804C81.6553 25.6431 82.5437 25.4402 83.2512 25.0289C83.9531 24.6176 84.3096 23.8772 84.3096 22.8023C84.3096 21.7275 83.9586 20.9871 83.2512 20.5758C82.5492 20.1645 81.6553 19.9616 80.5804 19.9616H76.2425V25.6431Z" fill="#E00E12"/>
<path d="M119.018 14.0055C119.298 14.0055 119.545 14.1097 119.748 14.3126C119.951 14.5155 120.055 14.7623 120.055 15.042V30.3645C120.055 32.1304 119.775 33.6934 119.21 35.0479C118.645 36.4025 117.845 37.5432 116.808 38.4645C115.772 39.3858 114.538 40.0823 113.101 40.5594C111.67 41.0311 110.09 41.2669 108.379 41.2669C106.641 41.2669 105.05 41.0311 103.619 40.5594C102.182 40.0878 100.954 39.3858 99.9336 38.4645C98.9136 37.5432 98.1184 36.4025 97.5535 35.0479C96.9887 33.6934 96.709 32.1304 96.709 30.3645V15.042C96.709 14.7623 96.8132 14.5155 97.0161 14.3126C97.219 14.1097 97.4658 14.0055 97.7455 14.0055H102.774C103.054 14.0055 103.301 14.1097 103.504 14.3126C103.707 14.5155 103.811 14.7623 103.811 15.042V30.211C103.811 31.7465 104.189 32.953 104.946 33.8195C105.703 34.686 106.849 35.1247 108.385 35.1247C109.92 35.1247 111.066 34.6915 111.823 33.8195C112.58 32.9475 112.958 31.7465 112.958 30.211V15.042C112.958 14.7623 113.063 14.5155 113.265 14.3126C113.468 14.1097 113.715 14.0055 113.995 14.0055H119.018Z" fill="#E00E12"/>
<path d="M127.354 40.883C127.075 40.883 126.828 40.7788 126.625 40.5759C126.422 40.373 126.318 40.1262 126.318 39.8465V15.042C126.318 14.7623 126.422 14.5155 126.625 14.3126C126.828 14.1097 127.075 14.0055 127.354 14.0055H139.721C141.437 14.0055 142.88 14.2413 144.059 14.7184C145.238 15.19 146.176 15.8043 146.883 16.5611C147.585 17.3179 148.095 18.1734 148.402 19.1331C148.709 20.0928 148.863 21.0471 148.863 21.9958C148.863 22.7362 148.781 23.3833 148.611 23.9372C148.446 24.4856 148.243 24.9627 148.018 25.3575C147.788 25.7524 147.552 26.076 147.311 26.3173C147.07 26.5586 146.867 26.745 146.713 26.8766C147.711 27.5676 148.408 28.3683 148.808 29.2787C149.203 30.189 149.4 31.2804 149.4 32.5636C149.4 33.6111 149.247 34.6366 148.94 35.6347C148.633 36.6328 148.128 37.5212 147.421 38.3055C146.713 39.0842 145.803 39.7149 144.673 40.1865C143.549 40.6581 142.161 40.894 140.527 40.894H127.354V40.883ZM141.717 22.1439C141.717 21.4803 141.52 20.9483 141.119 20.548C140.719 20.1477 140.138 19.9502 139.37 19.9502H133.42V24.3265H139.37C140.138 24.3265 140.719 24.1291 141.119 23.7343C141.52 23.3394 141.717 22.8129 141.717 22.1439ZM133.42 34.9328H139.754C140.522 34.9328 141.136 34.7079 141.597 34.2582C142.057 33.8085 142.288 33.2546 142.288 32.5856C142.288 31.922 142.057 31.3626 141.597 30.9129C141.136 30.4632 140.522 30.2384 139.754 30.2384H133.42V34.9328Z" fill="#E00E12"/>
<path d="M167.75 39.8465C167.75 40.1262 167.646 40.373 167.443 40.5759C167.24 40.7843 166.993 40.883 166.714 40.883H161.685C161.405 40.883 161.158 40.7788 160.955 40.5759C160.752 40.373 160.648 40.1262 160.648 39.8465V31.6697L151.781 15.3491C151.676 15.1681 151.627 15.0036 151.627 14.85C151.627 14.6197 151.709 14.4223 151.879 14.2523C152.044 14.0877 152.247 14 152.477 14H157.736C158.246 14 158.63 14.1261 158.888 14.3839C159.146 14.6416 159.299 14.8336 159.349 14.9597L164.186 24.4088L169.061 14.9597C169.11 14.8336 169.264 14.6416 169.522 14.3839C169.779 14.1261 170.163 14 170.673 14H175.932C176.163 14 176.36 14.0823 176.525 14.2523C176.689 14.4168 176.777 14.6197 176.777 14.85C176.777 15.0036 176.728 15.1681 176.623 15.3491L167.75 31.6697V39.8465V39.8465Z" fill="#E00E12"/>
<path d="M201.36 14.3839C203.384 14.3839 205.073 14.6087 206.428 15.0584C207.782 15.5081 208.873 16.1717 209.691 17.0546C210.508 17.9376 211.1 19.0234 211.457 20.3177C211.813 21.6119 212.005 23.0871 212.032 24.7543C212.06 25.906 212.071 26.926 212.071 27.8089C212.071 28.6919 212.06 29.7119 212.032 30.8636C211.983 32.6295 211.78 34.165 211.44 35.4702C211.1 36.7754 210.519 37.8558 209.713 38.7168C208.906 39.5723 207.837 40.2139 206.504 40.6362C205.172 41.0585 203.521 41.2724 201.552 41.2724H193.178C192.613 41.2724 192.333 40.9927 192.333 40.4278V15.2668C192.333 14.68 192.613 14.3839 193.178 14.3839H201.36ZM209.614 24.9408C209.586 23.5314 209.422 22.3084 209.115 21.2719C208.808 20.2354 208.32 19.3799 207.656 18.6999C206.992 18.0198 206.126 17.5153 205.062 17.1808C203.998 16.8463 202.698 16.6817 201.163 16.6817H194.752V38.9526H201.355C202.89 38.9526 204.179 38.7991 205.216 38.4919C206.252 38.1848 207.091 37.7077 207.733 37.0551C208.374 36.4025 208.841 35.5525 209.137 34.4995C209.433 33.4521 209.592 32.1688 209.619 30.6607C209.619 30.0958 209.625 29.5858 209.641 29.1251C209.652 28.6645 209.663 28.2202 209.663 27.798C209.663 27.3757 209.658 26.9425 209.641 26.4928C209.619 26.054 209.614 25.533 209.614 24.9408Z" fill="#1F2338"/>
<path d="M228.583 14C230.07 14 231.424 14.2194 232.653 14.6526C233.881 15.0858 234.939 15.7494 235.822 16.6324C236.705 17.5153 237.396 18.6176 237.895 19.9338C238.394 21.2554 238.669 22.8074 238.724 24.6007C238.773 25.7524 238.8 26.8273 238.8 27.8254C238.8 28.8235 238.773 29.8984 238.724 31.05C238.619 34.686 237.698 37.3622 235.96 39.0732C234.221 40.7898 231.759 41.6453 228.589 41.6453C225.386 41.6453 222.924 40.7898 221.196 39.0732C219.469 37.3567 218.553 34.6805 218.449 31.05C218.399 29.8984 218.372 28.8235 218.372 27.8254C218.372 26.8273 218.399 25.7524 218.449 24.6007C218.498 22.8074 218.778 21.2554 219.277 19.9338C219.776 18.6176 220.467 17.5153 221.35 16.6324C222.233 15.7494 223.28 15.0913 224.498 14.6526C225.71 14.2194 227.075 14 228.583 14ZM228.583 16.3033C227.509 16.3033 226.51 16.4624 225.589 16.7859C224.668 17.1095 223.862 17.6085 223.171 18.305C222.48 18.996 221.937 19.8789 221.536 20.9538C221.142 22.0287 220.917 23.312 220.862 24.7927C220.834 25.3795 220.818 25.9169 220.807 26.405C220.796 26.8931 220.785 27.3647 220.785 27.8254C220.785 28.286 220.791 28.7686 220.807 29.2677C220.818 29.7667 220.84 30.2987 220.862 30.8636C220.911 32.3717 221.136 33.6604 221.536 34.7244C221.931 35.7883 222.469 36.6657 223.149 37.3567C223.829 38.0477 224.629 38.5523 225.551 38.8758C226.472 39.1994 227.481 39.3584 228.583 39.3584C229.686 39.3584 230.695 39.1994 231.616 38.8758C232.537 38.5523 233.338 38.0477 234.018 37.3567C234.698 36.6657 235.236 35.7883 235.63 34.7244C236.025 33.6604 236.25 32.3772 236.305 30.8636C236.332 30.2987 236.343 29.7667 236.343 29.2677C236.343 28.7686 236.343 28.286 236.343 27.8254C236.343 27.3647 236.343 26.8931 236.343 26.405C236.343 25.9169 236.332 25.3795 236.305 24.7927C236.256 23.3065 236.031 22.0287 235.63 20.9538C235.236 19.8789 234.687 18.996 233.996 18.305C233.305 17.614 232.499 17.1095 231.578 16.7859C230.656 16.4624 229.658 16.3033 228.583 16.3033Z" fill="#1F2338"/>
<path d="M262.206 35.6018C261.812 36.8412 261.214 37.9106 260.419 38.81C259.623 39.7039 258.653 40.4059 257.501 40.9049C256.349 41.404 255.017 41.6563 253.509 41.6563C252.253 41.6563 251.074 41.5027 249.977 41.1956C248.875 40.8885 247.904 40.4169 247.059 39.7752C246.215 39.1336 245.535 38.3219 245.025 37.3348C244.515 36.3477 244.23 35.1796 244.18 33.8195C244.18 33.5892 244.246 33.3917 244.372 33.2217C244.498 33.0572 244.707 32.9695 244.986 32.9695H245.754C246.012 32.9695 246.209 33.0462 246.352 33.1998C246.494 33.3534 246.577 33.5453 246.604 33.7756C246.681 34.7737 246.917 35.6238 247.312 36.3312C247.706 37.0387 248.222 37.609 248.847 38.0587C249.472 38.5084 250.185 38.832 250.98 39.0403C251.776 39.2433 252.62 39.3475 253.514 39.3475C254.638 39.3475 255.631 39.1555 256.492 38.7716C257.347 38.3877 258.066 37.8448 258.642 37.1374C259.218 36.4354 259.651 35.5963 259.947 34.6202C260.243 33.6495 260.391 32.5856 260.391 31.4339V16.6872H246.22C245.655 16.6872 245.376 16.4075 245.376 15.8427V15.2284C245.376 14.6636 245.655 14.3839 246.22 14.3839H261.927C262.513 14.3839 262.81 14.68 262.81 15.2668V31.4723C262.799 32.9804 262.601 34.3569 262.206 35.6018Z" fill="#1F2338"/>
<path d="M280.04 14C281.527 14 282.881 14.2194 284.11 14.6526C285.338 15.0858 286.397 15.7494 287.279 16.6324C288.162 17.5153 288.853 18.6176 289.352 19.9338C289.851 21.2554 290.126 22.8074 290.181 24.6007C290.23 25.7524 290.257 26.8273 290.257 27.8254C290.257 28.8235 290.23 29.8984 290.181 31.05C290.076 34.686 289.155 37.3622 287.417 39.0732C285.678 40.7898 283.216 41.6453 280.046 41.6453C276.843 41.6453 274.381 40.7898 272.653 39.0732C270.926 37.3567 270.01 34.6805 269.906 31.05C269.857 29.8984 269.829 28.8235 269.829 27.8254C269.829 26.8273 269.857 25.7524 269.906 24.6007C269.955 22.8074 270.235 21.2554 270.734 19.9338C271.233 18.6176 271.924 17.5153 272.807 16.6324C273.69 15.7494 274.737 15.0913 275.955 14.6526C277.167 14.2194 278.532 14 280.04 14ZM280.04 16.3033C278.966 16.3033 277.967 16.4624 277.046 16.7859C276.125 17.1095 275.319 17.6085 274.628 18.305C273.937 18.996 273.394 19.8789 272.993 20.9538C272.599 22.0287 272.374 23.312 272.319 24.7927C272.291 25.3795 272.275 25.9169 272.264 26.405C272.253 26.8931 272.242 27.3647 272.242 27.8254C272.242 28.286 272.248 28.7686 272.264 29.2677C272.275 29.7667 272.297 30.2987 272.319 30.8636C272.368 32.3717 272.593 33.6604 272.993 34.7244C273.388 35.7883 273.926 36.6657 274.606 37.3567C275.286 38.0477 276.086 38.5523 277.008 38.8758C277.929 39.1994 278.938 39.3584 280.04 39.3584C281.143 39.3584 282.152 39.1994 283.073 38.8758C283.995 38.5523 284.795 38.0477 285.475 37.3567C286.155 36.6657 286.693 35.7883 287.088 34.7244C287.482 33.6604 287.707 32.3772 287.762 30.8636C287.789 30.2987 287.8 29.7667 287.8 29.2677C287.8 28.7686 287.8 28.286 287.8 27.8254C287.8 27.3647 287.8 26.8931 287.8 26.405C287.8 25.9169 287.789 25.3795 287.762 24.7927C287.713 23.3065 287.488 22.0287 287.088 20.9538C286.693 19.8789 286.144 18.996 285.453 18.305C284.762 17.614 283.956 17.1095 283.035 16.7859C282.113 16.4624 281.115 16.3033 280.04 16.3033Z" fill="#1F2338"/>
</svg>
